<svg width="1061" height="864" viewBox="0 0 1061 864" fill="none" xmlns="http://www.w3.org/2000/svg">
<clipPath id="clip-path">
<path fill-rule="evenodd" clip-rule="evenodd" d="M1061 0H0V864H1061V0ZM762.217 36.5068C890.525 93.4297 986.516 214.852 1032.52 378.406C1073.86 525.419 1066.91 649.494 1013.92 768.933C992.873 816.369 953.674 842.222 905.5 855.869C804.164 884.578 697.251 824.522 593.5 753.369C549.106 722.926 507 698.792 444 685.869C415.227 679.967 387.143 677.852 359.584 675.776C329.675 673.524 300.385 671.319 271.5 664.369C207.66 649.008 186.792 640.27 132.68 616.263C81.8248 593.704 40.5593 563.75 18.7965 519.664C-3.25342 475 -1.3844 422.938 24.356 364.917C77.3448 245.478 190.613 133.568 327.349 65.5625C479.468 -10.0977 633.908 -20.417 762.217 36.5068Z" fill="white"/>
</clipPath>
</svg>
